<svg xmlns="http://www.w3.org/2000/svg" width="24" height="24" fill="none"><path fill="#00B956" fill-rule="evenodd" d="M13.45 12.488V.088A12 12 0 0 1 11.958 24c-.376 0-.744-.016-1.108-.052V13.592a.132.132 0 0 1 .132-.136h1.488a.98.98 0 0 0 .98-.968Zm-.257 6.056a1.5 1.5 0 1 1 0-3 1.5 1.5 0 0 1 0 3Zm2.017-1.5a1.5 1.5 0 1 0 3 0 1.5 1.5 0 0 0-3 0Zm3.516 0a1.5 1.5 0 1 0 3 0 1.5 1.5 0 0 0-3 0Z" clip-rule="evenodd"/><path fill="#00B956" fill-rule="evenodd" d="M.07 10.716A12 12 0 0 1 11.958 0h.024v11.872a.132.132 0 0 1-.132.128h-1.504a.98.98 0 0 0-.94.96v10.756a12 12 0 0 1-9.336-13Zm8.088-2.32a1.5 1.5 0 1 0 3 0 1.5 1.5 0 0 0-3 0Z" clip-rule="evenodd"/></svg>