<svg xmlns="http://www.w3.org/2000/svg" width="2037" height="2037" fill="none"><path fill="#FE0032" d="M0 0h2037v2037H0z"/><path fill="#fff" d="M1354 244.5V153h525.5v91.5H1673V622h-115V244.5h-204ZM151 622V152h162.5L463 461l151-309h164.5v470h-114V286.5L515.5 570H412L265.5 287v335H151ZM1875 1542h-132s-5-17.28-12-26c-8.83-11-22.5-16.75-34-20.5-18.5-6.03-45.02-7.52-67-8.5-22.5-1-49.5 0-80.5 4-21.58 2.78-44 10.5-52.5 26-3.97 7.24-10.7 26.14-2 40.5 10 16.5 31.24 22.17 42 24.5 30 6.5 58.87 9.48 95 12 43 3 66 4.05 104 10 27 4.23 61.5 14 83 24 16 7.44 44.5 27 55.5 54.5 4.2 10.5 8.69 26.49 9.5 39.5 1.5 24-1 45-9.5 66.5-10.82 27.36-25.5 42.5-46.5 57-23.17 16-54.81 25.7-95.5 33-32 5.74-67.76 7-111.5 7-27.5 0-59.5-.25-86-4-28.84-4.08-45-6.5-72-15-19-5.98-41.5-17.99-52-26-16-12.21-31.1-28.5-43.5-55-8.86-18.94-12-53.5-12-53.5h132s3 29 25 43 46.03 18.69 75 19.5c36 1 58.5 2 89-.5 19.5-1.6 35-4.5 55-14 12.5-5.94 23.5-17 23.5-41.5 0-19.5-15.2-29.23-26.5-34-35.5-15-64.77-15.15-99-18-42-3.5-67.74-3.14-109.5-10-38.65-6.35-60-10.29-91.5-25.5-11.5-5.55-30-18.5-41.5-31.5s-18.05-28.5-23-52.5c-3.4-16.5-1.2-45.5 3-60.5s10.66-28 19-39c10.99-14.5 19.9-21.35 36.5-32 26.5-17 59.84-26.43 99-32.5 35.5-5.5 60.62-5.65 99.5-5.5 37.52.14 65.5.48 97 6.5 33 6.3 50.73 9.5 80 25 25.2 13.34 40.58 23.84 56.5 47.5 15.97 23.74 20.5 65.5 20.5 65.5Z"/></svg>